<svg width="29" height="29" viewBox="0 0 29 29" fill="none" xmlns="http://www.w3.org/2000/svg">
<path fill-rule="evenodd" clip-rule="evenodd" d="M13.031 0.0447207C7.12513 0.668117 2.16304 4.79844 0.53268 10.448C0.101439 11.9422 -0.00136485 12.7226 1.36148e-05 14.4915C0.00139208 16.2611 0.106373 17.0576 0.53268 18.535C2.02584 23.7089 6.33956 27.6597 11.6493 28.7162C15.7395 29.53 19.8955 28.5789 23.287 26.0528C24.1062 25.4426 25.4659 24.0864 26.0742 23.2727C27.6025 21.2285 28.5476 18.9528 28.9092 16.4466C29.0295 15.6122 29.0305 13.3805 28.9108 12.5363C28.1848 7.41599 24.8513 3.08755 20.1053 1.10295C19.1377 0.698313 18.004 0.370431 16.9269 0.183535C15.9727 0.0180006 13.9625 -0.053615 13.031 0.0447207ZM19.3392 4.72588L19.6112 4.77099V6.35457V7.93816L18.4323 7.93859C17.0945 7.93902 16.7762 8.00166 16.448 8.32918C16.1123 8.66423 16.0571 8.96909 16.0567 10.4907L16.0563 11.8484H17.8039H19.5515L19.5084 12.12C19.4399 12.5527 19.1034 15.1952 19.1034 15.3008C19.1034 15.3772 18.795 15.3966 17.5798 15.3966H16.0563V19.8862V24.3757H14.2062H12.3562V19.8862V15.3966H10.8689H9.3816V13.6225V11.8484H10.8601H12.3385L12.3753 10.0562C12.4071 8.50934 12.4334 8.19138 12.5674 7.7333C13.0715 6.01004 14.2577 4.95629 16.0113 4.6741C16.4042 4.61096 18.8778 4.64941 19.3392 4.72588Z" fill="white"/>
</svg>
