<svg width="100" height="79" viewBox="0 0 100 79" fill="none" xmlns="http://www.w3.org/2000/svg">
<path d="M100 32.9148C99.8503 32.9362 99.7006 32.9792 99.5488 32.9792C92.1447 32.9814 84.7384 32.9814 77.3343 32.9792C77.2106 32.9792 77.0848 32.9685 76.9676 32.9642C76.8809 32.6462 76.844 1.37336 76.9286 0.58053C77.0566 0.574084 77.1911 0.559044 77.3278 0.559044C84.7471 0.559044 92.1664 0.559044 99.5856 0.559044C99.7245 0.559044 99.8612 0.589124 100 0.606313V8.11995C99.8048 8.12855 99.6073 8.14144 99.4121 8.14144C95.2968 8.14144 91.1814 8.14144 87.0661 8.14144H86.5498V13.3561H87.0661C90.9146 13.3561 94.7631 13.3561 98.6116 13.3561C98.7873 13.3561 98.963 13.3668 99.1279 13.3733V20.208H86.578C86.4782 20.8504 86.5108 25.081 86.6149 25.3839C86.7754 25.3839 86.9425 25.3839 87.1095 25.3839C91.2097 25.3839 95.312 25.3839 99.4121 25.3839C99.6073 25.3839 99.8048 25.3925 100 25.3968V32.9105V32.9148ZM100 36.6705C99.9436 36.6619 99.8894 36.6469 99.833 36.6469C98.527 36.6469 97.2188 36.6447 95.9129 36.6469C95.8326 36.6469 95.7523 36.6684 95.6287 36.6855C95.6287 36.8488 95.6287 36.9971 95.6287 37.1475C95.6287 39.5131 95.6287 41.8765 95.6265 44.2422C95.6265 44.3797 95.6764 44.5344 95.5462 44.6805C95.4465 44.5494 95.3597 44.4398 95.2751 44.3302C93.4203 41.8658 91.5633 39.4035 89.7171 36.9326C89.5696 36.735 89.4221 36.6361 89.1661 36.6404C88.1964 36.6533 87.2267 36.6447 86.2569 36.6469C86.1485 36.6469 86.04 36.6598 85.8795 36.6726C85.8795 41.8744 85.8795 47.0504 85.8795 52.25H90.2768C90.2768 50.8835 90.2747 49.5406 90.2768 48.1956C90.279 46.842 90.2638 45.4883 90.3245 44.1261C90.4482 44.2207 90.5371 44.3217 90.6174 44.4291C92.4961 46.9451 94.3748 49.4611 96.2426 51.9835C96.4032 52.2006 96.5659 52.2822 96.8349 52.2779C97.8892 52.265 98.9413 52.2779 99.9957 52.2822V36.6705H100ZM0 64.3036C0.0477265 64.4024 0.119316 64.497 0.138841 64.6001C0.431708 66.0182 1.36888 66.8583 2.69438 67.2816C4.08061 67.7263 5.49505 67.7027 6.87695 67.2278C8.60161 66.6348 9.44334 65.3177 9.2828 63.5215C9.21555 62.7631 8.89882 62.1142 8.2697 61.6759C7.86185 61.3923 7.40845 61.1366 6.9377 60.9797C6.1155 60.7068 5.25859 60.535 4.42555 60.29C3.95696 60.1525 3.4862 59.9935 3.0545 59.7722C2.02838 59.2437 2.21711 58.0297 2.792 57.5097C3.07836 57.2498 3.40594 57.0671 3.77907 56.9704C4.4147 56.8072 5.06335 56.7943 5.69681 56.9704C6.53202 57.2025 7.10257 57.7053 7.2631 58.5883C7.26961 58.627 7.28914 58.6657 7.31951 58.7473C7.90307 58.7602 8.49531 58.7624 9.11576 58.7473C9.10274 58.0426 8.91834 57.4582 8.54521 56.9318C8.0571 56.2485 7.39327 55.7952 6.59493 55.5438C5.35404 55.1527 4.10231 55.1678 2.86576 55.561C2.18457 55.778 1.61185 56.169 1.12808 56.6976C0.112808 57.8041 -0.0672508 60.2965 1.93509 61.3214C2.37982 61.5491 2.85708 61.7317 3.33868 61.8735C4.00902 62.0712 4.69889 62.2087 5.38008 62.3806C5.85734 62.5009 6.32376 62.6578 6.7316 62.9414C7.53862 63.5043 7.64058 64.5851 6.916 65.2511C6.65567 65.4896 6.32159 65.6808 5.98967 65.8012C5.23039 66.074 4.4429 66.0612 3.66843 65.8399C2.78766 65.5885 2.14769 65.0771 1.9416 64.1425C1.93726 64.1188 1.9134 64.0995 1.88086 64.0544H0C0 64.1382 0 64.222 0 64.3057V64.3036ZM100 63.3862C99.9501 63.2014 99.9067 63.0166 99.846 62.8361C99.6442 62.2431 99.2451 61.8091 98.7222 61.476C98.1495 61.1108 97.5139 60.8916 96.8609 60.7219C96.1971 60.5479 95.5224 60.4103 94.8651 60.2148C94.4529 60.0902 94.045 59.9226 93.6719 59.7099C93.173 59.4263 92.9907 58.96 93.0667 58.3928C93.1491 57.7762 93.5352 57.3959 94.0646 57.1402C94.7479 56.8093 95.479 56.7878 96.2057 56.9275C97.1755 57.1144 97.8263 57.6558 98.0042 58.6657C98.0085 58.6872 98.0389 58.7044 98.0606 58.728H99.8655C99.8069 58.4057 99.7831 58.1135 99.6985 57.8406C99.334 56.6482 98.4706 55.937 97.323 55.5502C96.2036 55.1721 95.0581 55.1807 93.917 55.4643C93.0797 55.6727 92.3724 56.1024 91.7997 56.7556C90.8495 57.8385 90.6543 60.2943 92.6414 61.3171C93.0992 61.5512 93.5895 61.736 94.0841 61.8821C94.7544 62.082 95.4508 62.1958 96.1211 62.3978C96.5724 62.5332 97.0344 62.7007 97.4293 62.9478C98.2753 63.4807 98.3578 64.6108 97.6137 65.2748C97.3512 65.509 97.0084 65.6723 96.6808 65.8162C96.2209 66.016 95.722 66.0031 95.2274 65.9838C93.878 65.9365 93.0515 65.3306 92.6263 64.0758H90.8213C90.8213 64.1962 90.8083 64.295 90.8235 64.3874C90.8582 64.5786 90.8929 64.7698 90.9515 64.9568C91.3398 66.1944 92.2488 66.9077 93.4398 67.3009C94.4312 67.6296 95.453 67.6361 96.4813 67.5029C97.3317 67.3933 98.117 67.1183 98.796 66.5854C99.3058 66.1858 99.6703 65.6852 99.8633 65.0706C99.9154 64.9031 99.9544 64.7312 100 64.5593C100 64.1704 100 63.7793 100 63.3904V63.3862ZM15.5154 78.9978C15.5632 78.9721 15.6087 78.9355 15.6586 78.9248C16.9255 78.6433 17.7217 77.8441 18.1274 76.658C18.5027 75.5622 18.5027 74.4407 18.1968 73.332C17.8215 71.9698 16.7585 70.9062 15.1293 70.7773C13.4263 70.6441 12.0184 71.4992 11.4695 73.1C11.1029 74.1657 11.0877 75.2593 11.3719 76.3443C11.7277 77.7001 12.5477 78.6261 13.9795 78.9355C14.0164 78.9441 14.0489 78.9785 14.0837 79H15.5176L15.5154 78.9978ZM17.5655 76.7826C17.0232 77.9665 16.0968 78.5789 14.7822 78.5746C13.4849 78.5703 12.5412 77.9773 12.0401 76.7955C11.5064 75.5386 11.5043 74.2387 12.0401 72.9818C12.5412 71.8022 13.4784 71.2156 14.7844 71.2113C16.0903 71.207 17.0015 71.8022 17.5482 72.9624C17.648 73.1752 17.7326 73.4008 17.7781 73.6307C17.8519 73.9981 17.8909 74.3719 17.9278 74.6383C17.917 75.4419 17.8627 76.1338 17.5655 76.7805V76.7826ZM100 70.9019C98.514 70.8976 97.0279 70.8933 95.5419 70.8933C95.4638 70.8933 95.3879 70.9234 95.3163 70.9385V78.9033C95.492 78.9033 95.6439 78.9033 95.7936 78.9033C97.195 78.9076 98.5964 78.9119 100 78.9141V78.4972C99.846 78.4886 99.6919 78.4757 99.5379 78.4757C98.4445 78.4757 97.349 78.4757 96.2556 78.4757H95.8044V75.0187C97.1494 74.9972 98.4619 74.9778 99.7744 74.9563C99.7852 74.9563 99.7939 74.9392 99.8221 74.9155C99.8156 74.8231 99.8091 74.7178 99.8004 74.5674H95.7719C95.7762 73.4588 95.7632 72.3974 95.7805 71.3188H99.9978V70.9019H100ZM4.38433 78.9978C4.54052 78.9441 4.69455 78.8883 4.85075 78.8346C5.84866 78.4929 6.52334 77.8462 6.79452 76.817C6.82055 76.716 6.81404 76.6086 6.82489 76.4818H6.42355C6.39318 76.5613 6.36064 76.6215 6.34328 76.6881C6.12418 77.6013 5.51675 78.1535 4.64249 78.4263C3.28879 78.8496 1.5446 78.4843 0.84606 76.5141C0.590073 75.7943 0.540177 75.0466 0.611767 74.2924C0.674679 73.6221 0.861246 72.9882 1.24306 72.4167C2.2323 70.9342 4.44073 70.8697 5.54278 71.901C5.94195 72.2727 6.23265 72.7003 6.34545 73.2396C6.36064 73.317 6.4062 73.3879 6.44308 73.4781C6.57975 73.4652 6.69906 73.4545 6.84007 73.4437C6.7815 72.7884 6.5125 72.2727 6.10465 71.8108C4.64682 70.165 1.25174 70.3283 0.35361 73.1666C0.00867753 74.2537 0.00216938 75.3581 0.327577 76.4518C0.709389 77.728 1.49254 78.6197 2.85057 78.9312C2.88745 78.9398 2.91565 78.9764 2.9482 79H4.38216L4.38433 78.9978ZM88.1096 78.9978C88.2137 78.9635 88.3179 78.9269 88.4242 78.899C89.6347 78.5789 90.4504 77.6894 90.6001 76.4969H90.1597C90.0404 77.1372 89.754 77.6485 89.2377 78.0159C88.4025 78.609 87.4805 78.725 86.5129 78.4414C85.4781 78.1384 84.8859 77.3843 84.58 76.4023C84.2828 75.4527 84.2763 74.4794 84.5193 73.5189C84.8447 72.2276 85.8404 71.0975 87.6757 71.2178C88.7908 71.2908 89.7692 72.0493 90.0859 73.1193C90.1163 73.2246 90.1467 73.3299 90.1814 73.4523C90.2703 73.4588 90.3506 73.4717 90.4308 73.4717C90.4829 73.4717 90.535 73.4502 90.5849 73.4394C90.5567 72.8035 90.2768 72.2384 89.7952 71.7313C88.3439 70.1993 85.0703 70.3605 84.1548 73.0785C83.7665 74.2301 83.7643 75.4075 84.1331 76.5635C84.5279 77.8032 85.3263 78.6519 86.6539 78.9355C86.6908 78.9441 86.7234 78.9764 86.7581 78.9978H88.1074H88.1096ZM18.0601 32.9814C21.5594 32.9814 25.0282 32.9814 28.4971 32.9814C28.5665 32.9814 28.6359 32.9706 28.7053 32.962C28.7162 32.962 28.7248 32.9448 28.7335 32.9341C28.7422 32.9234 28.7487 32.9105 28.7747 32.8632C26.7333 28.826 24.6811 24.7694 22.6245 20.7021C22.9022 20.5453 23.1387 20.4207 23.3621 20.2832C23.5877 20.1435 23.8133 19.9995 24.0259 19.8405C25.9025 18.4375 26.9872 16.5317 27.5599 14.3144C27.9916 12.6449 27.9872 10.954 27.7096 9.26301C27.4167 7.47323 26.7398 5.84459 25.538 4.4523C24.2212 2.92465 22.5421 1.95993 20.6287 1.36047C18.7478 0.771755 16.8106 0.569787 14.8516 0.563341C10.0746 0.550449 5.29764 0.559044 0.520653 0.561192C0.399167 0.561192 0.277681 0.58053 0.164873 0.589124C0.0780979 1.06611 0.095453 32.629 0.180059 32.9556H9.77308V22.1331H12.8927C14.6217 25.7664 16.3376 29.3717 18.058 32.9835L18.0601 32.9814ZM9.7861 7.64511C9.89457 7.63437 9.98785 7.61933 10.0811 7.61933C11.3589 7.61933 12.6367 7.60429 13.9144 7.62363C15.1315 7.64297 16.1988 8.04475 17.0297 8.95576C17.9321 9.94626 18.186 11.1366 17.9972 12.4128C17.7044 14.3982 16.3658 15.6314 14.2507 15.7647C12.7842 15.857 11.3068 15.7818 9.7861 15.7818V7.64297V7.64511ZM44.954 23.6457C44.9735 23.9659 44.9909 24.2838 45.0213 24.6018C45.1883 26.2563 45.7285 27.771 46.7633 29.0946C47.8566 30.4954 49.2841 31.4602 50.909 32.152C52.6662 32.9019 54.5167 33.2693 56.417 33.4369C58.7665 33.6431 61.1051 33.598 63.4242 33.1575C65.4872 32.7644 67.418 32.0403 69.1383 30.8177C70.8999 29.5629 72.1972 27.9644 72.848 25.891C73.3838 24.1829 73.4402 22.4425 73.1473 20.6914C72.8632 18.9854 72.1386 17.4878 70.8521 16.2868C69.9497 15.4445 68.8932 14.8494 67.7564 14.3831C66.1337 13.7192 64.4221 13.4162 62.7061 13.1283C61.2808 12.8898 59.8577 12.6449 58.4389 12.3699C57.6384 12.2152 56.8574 11.9745 56.1589 11.5405C54.7596 10.6725 54.6902 8.88271 56.0135 7.90509C56.4127 7.61074 56.8618 7.41521 57.3412 7.2906C58.3066 7.03921 59.2893 7.02202 60.2699 7.15094C61.1745 7.26911 62.0162 7.56776 62.7386 8.13929C63.2983 8.5819 63.6606 9.14269 63.7691 9.85172C63.7908 9.98708 63.8212 10.1203 63.8494 10.2578H72.6289C72.5898 9.77437 72.5703 9.31887 72.5139 8.86767C72.2883 7.03921 71.5984 5.40843 70.3597 4.02043C68.8997 2.38535 67.0557 1.36047 64.9579 0.780349C61.6973 -0.122061 58.3912 -0.225194 55.0677 0.385007C53.0415 0.756714 51.1715 1.53236 49.5076 2.75921C47.8523 3.97961 46.6223 5.51371 45.9866 7.47752C45.4833 9.02666 45.3966 10.6145 45.6048 12.2195C45.8521 14.1167 46.6396 15.7582 48.0042 17.1183C49.2819 18.3924 50.8417 19.1874 52.5534 19.7202C54.0199 20.1757 55.5428 20.3562 57.044 20.642C58.3391 20.8869 59.6408 21.1104 60.925 21.4026C61.5476 21.5444 62.1529 21.7915 62.7386 22.0515C63.2571 22.2814 63.6107 22.7003 63.7474 23.2654C63.9448 24.0883 63.6932 24.7759 63.0727 25.3367C62.6388 25.7277 62.1269 25.9877 61.5693 26.151C60.3219 26.5184 59.055 26.57 57.7772 26.3508C56.9507 26.209 56.1806 25.9211 55.482 25.457C54.7943 25.0015 54.2802 24.4149 54.1045 23.5856C54.0936 23.534 54.0568 23.4889 54.0286 23.4309H44.98C44.967 23.5297 44.9518 23.5856 44.954 23.6393V23.6457ZM41.368 0.623501C40.945 0.524666 32.0787 0.539706 31.7707 0.634244C31.6795 1.34328 31.7186 32.6677 31.814 32.962H41.3658V0.623501H41.368ZM17.648 52.2414H21.6353C21.6526 52.1984 21.6591 52.1855 21.6635 52.1726C21.6678 52.1597 21.6743 52.1468 21.6743 52.1318C21.6765 49.2527 21.6808 46.3736 21.683 43.4923C21.683 43.4515 21.6895 43.4085 21.696 43.3677C21.696 43.3591 21.7134 43.3505 21.7242 43.3462C21.7351 43.3419 21.7503 43.344 21.7958 43.3376C22.9608 46.2425 24.1301 49.1538 25.2972 52.0652H27.7963C28.1933 51.079 28.5903 50.1014 28.983 49.1216C29.3713 48.1526 29.7553 47.1836 30.1458 46.2167C30.5341 45.2541 30.9007 44.2808 31.3151 43.329C31.3498 43.3376 31.3845 43.344 31.417 43.3526V52.2392H35.4326C35.5194 51.7128 35.4955 36.9649 35.4087 36.6641H30.0937C29.8529 37.2829 29.6165 37.8909 29.38 38.499C29.1479 39.0963 28.9179 39.6914 28.688 40.2887C28.4537 40.8989 28.2194 41.5091 27.9851 42.1193C27.7551 42.7167 27.5317 43.3161 27.293 43.9091C27.0522 44.5043 26.8592 45.1188 26.5359 45.7784C25.3319 42.6737 24.167 39.6699 22.9998 36.6619H17.6436V52.2349L17.648 52.2414ZM74.4078 36.5137C71.6353 36.9971 69.6872 38.5161 68.7348 41.1546C68.0016 43.1872 67.9907 45.2864 68.6003 47.349C69.3466 49.8779 71.0344 51.5216 73.6159 52.222C75.1041 52.6238 76.6184 52.6539 78.1239 52.3531C80.8682 51.8031 82.7577 50.226 83.6298 47.5789C84.3153 45.5012 84.3002 43.3806 83.6211 41.3029C82.9204 39.1478 81.4604 37.6653 79.3106 36.8703C78.2845 36.4922 77.2106 36.3826 75.896 36.359C75.551 36.3933 74.974 36.417 74.4078 36.5158V36.5137ZM79.0025 46.6507C78.8268 47.0676 78.6099 47.4887 78.3257 47.8389C77.2345 49.1818 75.2039 49.2076 74.039 47.9249C73.629 47.4715 73.3534 46.9408 73.1929 46.3585C72.848 45.0994 72.848 43.8318 73.1886 42.5705C73.3274 42.057 73.5704 41.5886 73.8893 41.1589C74.9827 39.685 77.3126 39.6678 78.4255 41.1761C78.8745 41.7842 79.1435 42.4631 79.2542 43.2022C79.3171 43.6277 79.3388 44.0574 79.38 44.4849C79.3626 45.2305 79.2911 45.9653 79.0025 46.6529V46.6507ZM0.117147 52.2435H4.85075C5.12843 51.2058 5.3996 50.1916 5.6686 49.1882H10.4543C10.7298 50.2174 11.001 51.2337 11.2721 52.2414H16.227C14.5045 47.0181 12.7972 41.8379 11.0921 36.6641H5.24991C3.53827 41.8508 1.82662 47.0289 0.117147 52.2435ZM9.59736 45.8772H6.52768C7.02881 43.9994 7.52126 42.158 8.01371 40.3167C8.04408 40.3167 8.07662 40.3167 8.10699 40.3145C8.59944 42.1559 9.09407 43.9972 9.59736 45.8772ZM47.8523 36.6684H42.0058C41.4331 38.4087 40.8647 40.1362 40.2942 41.8658C39.7236 43.5954 39.1509 45.3229 38.5847 47.0547C38.0185 48.7778 37.4306 50.4924 36.8839 52.2543H41.6066C41.88 51.2294 42.1512 50.2153 42.4245 49.1968H47.2145C47.4922 50.2324 47.7634 51.2466 48.0345 52.2586H52.9894C51.2713 47.0439 49.564 41.8637 47.8523 36.6705V36.6684ZM43.2923 45.888C43.7695 44.0015 44.2858 42.1623 44.774 40.3167C44.8022 40.3145 44.8325 40.3102 44.8607 40.3081C45.3553 42.1473 45.8478 43.9865 46.3598 45.888H43.2944H43.2923ZM66.8301 48.5931H59.5583C59.734 48.3632 59.8534 48.202 59.9792 48.043C62.1204 45.2885 64.2615 42.5319 66.4049 39.7795C66.5394 39.6055 66.611 39.4357 66.6067 39.2123C66.5936 38.4753 66.6023 37.7384 66.6001 37.0014C66.6001 36.894 66.5828 36.7887 66.5719 36.6791H54.2498V40.3145C55.4126 40.3145 56.5472 40.3102 57.6818 40.3145C58.8251 40.3188 59.9683 40.293 61.2092 40.3339C61.0205 40.5788 60.8881 40.7528 60.7558 40.9226C58.6342 43.6405 56.5147 46.3585 54.3865 49.0722C54.2238 49.2806 54.1414 49.489 54.1479 49.7555C54.1631 50.4516 54.1522 51.1456 54.1544 51.8417C54.1544 51.975 54.1717 52.1103 54.1804 52.2478H66.8301V48.5909V48.5931ZM81.7793 62.5181C82.4388 62.2732 82.966 61.9187 83.3652 61.3923C83.9726 60.5951 84.1526 59.6863 84.0724 58.713C83.9552 57.3035 83.2307 56.328 81.9182 55.7844C81.3671 55.5567 80.7836 55.4664 80.1913 55.4643C78.7162 55.4578 77.241 55.4621 75.7658 55.4643C75.6573 55.4643 75.551 55.4815 75.4274 55.4922V67.3525H77.3213V62.8297H79.8399C79.9158 62.965 79.9853 63.0853 80.0503 63.2057C80.7402 64.4948 81.4301 65.784 82.1199 67.0731C82.2024 67.2278 82.2523 67.3997 82.5017 67.3933C83.1178 67.3761 83.7361 67.3868 84.4607 67.3868C83.5409 65.7195 82.6644 64.1296 81.7772 62.5181H81.7793ZM78.2671 57.0413C78.8008 57.0413 79.3323 57.0327 79.8659 57.0456C80.1154 57.0521 80.3714 57.0757 80.6144 57.1316C81.5147 57.3379 82.0896 58.0254 82.1286 58.9429C82.1395 59.205 82.1416 59.4757 82.0917 59.7314C81.9247 60.6037 81.3346 61.1731 80.3345 61.2504C79.3475 61.3278 78.3517 61.2676 77.3321 61.2676V57.0413C77.6575 57.0413 77.9612 57.0413 78.2671 57.0413ZM62.3373 65.7389V62.0905C62.8146 62.0905 63.2636 62.0905 63.7105 62.0905H65.0599C65.5089 62.0905 65.9602 62.097 66.4092 62.0905C66.8518 62.082 67.2965 62.1314 67.7369 62.0562V60.5414H65.8994C65.3094 60.5414 64.7193 60.5414 64.1292 60.5414C63.5305 60.5414 62.9317 60.535 62.3395 60.5328V57.0843C63.0011 57.0843 63.6302 57.0843 64.2594 57.0843C64.8885 57.0843 65.5241 57.0886 66.1554 57.0843C66.7802 57.08 67.4072 57.1037 68.0601 57.0671C68.0601 56.7663 68.0601 56.5171 68.0601 56.27C68.058 56.0122 68.0493 55.7543 68.045 55.4944H60.4543V67.3718H68.0341V65.7453H62.3395L62.3373 65.7389ZM18.3161 65.7389V62.0884H18.7869C20.2772 62.0884 21.7654 62.0884 23.2558 62.0884C23.4163 62.0884 23.5769 62.0669 23.7548 62.054C23.7591 61.5255 23.7743 61.0442 23.7461 60.5371H21.0018C20.5528 60.5371 20.1015 60.5393 19.6525 60.5371C19.2099 60.535 18.7652 60.5522 18.3161 60.5242V57.08C18.4962 57.08 18.6611 57.08 18.8259 57.08C20.3987 57.08 21.9737 57.08 23.5465 57.08C23.707 57.08 23.8698 57.0671 24.0476 57.0607C24.0433 56.4977 24.0802 55.9928 24.0259 55.4922H16.4483V67.3653H24.0259V65.7539C22.1017 65.7389 20.2143 65.7603 18.3161 65.741V65.7389ZM33.3044 65.6357C33.3001 62.314 33.2957 58.9901 33.2936 55.6684C33.2936 55.6405 33.2892 55.6125 33.2849 55.5846C33.2849 55.5717 33.2827 55.5567 33.2762 55.5438C33.2697 55.5309 33.261 55.5223 33.2502 55.5115C33.2415 55.5008 33.2306 55.4922 33.2306 55.4922H31.4236V67.3568H38.8363C38.9123 66.8175 38.8927 66.059 38.7908 65.741H33.3348C33.3109 65.6615 33.3044 65.6486 33.3044 65.6357ZM53.3582 67.3224V65.7475H47.7959V55.4858H45.9324V67.3546C46.6635 67.4341 53.061 67.4019 53.3582 67.3202V67.3224ZM28.6663 77.9644C28.5708 77.8333 28.4754 77.7022 28.3799 77.5712C26.8635 75.4484 25.3471 73.3256 23.8307 71.2027C23.66 70.965 23.4308 70.8833 23.143 70.9578V78.9033C23.3035 78.8947 23.4315 78.8883 23.5378 78.884C23.5682 78.8303 23.5769 78.8195 23.5791 78.8066C23.5856 78.7787 23.5921 78.7508 23.5921 78.725C23.5921 76.5141 23.5942 74.301 23.5942 72.0901C23.5942 72.0342 23.5942 71.9784 23.5964 71.9225C23.5964 71.8946 23.6029 71.8667 23.6116 71.8409C23.6138 71.8301 23.6268 71.8215 23.6376 71.8151C23.6485 71.8086 23.6637 71.8086 23.6897 71.8001C23.7765 71.9182 23.8676 72.0428 23.9565 72.1653C25.4925 74.3096 27.0305 76.4518 28.5621 78.5982C28.7205 78.8195 28.8702 78.9978 29.1978 78.856V70.8912C29.0329 70.9019 28.9049 70.9105 28.7552 70.9213V77.9257C28.7248 77.9386 28.6945 77.9515 28.6641 77.9665L28.6663 77.9644ZM73.6007 71.7786C73.6897 71.8946 73.783 72.0085 73.8676 72.1266C75.4122 74.2817 76.9546 76.4367 78.4992 78.5918C78.7487 78.9398 78.7509 78.9398 79.137 78.8367V70.8912C78.9787 70.8998 78.8463 70.9084 78.6684 70.917V77.9278C78.5101 77.8247 78.4168 77.7087 78.33 77.5884C76.8049 75.4548 75.2777 73.3213 73.7613 71.1813C73.5834 70.9299 73.4012 70.8224 73.0888 70.9363C73.0801 71.0523 73.0671 71.1619 73.0671 71.2693C73.0671 73.6758 73.0671 76.0822 73.0671 78.4908C73.0671 78.5875 73.0714 78.6863 73.0844 78.7808C73.0888 78.8174 73.1213 78.8517 73.1539 78.9076C73.2688 78.8947 73.386 78.8797 73.5357 78.8625V71.8022L73.6029 71.7764L73.6007 71.7786ZM56.7446 75.429C56.9225 75.3624 57.0657 75.313 57.2067 75.2571C57.8467 75.0058 58.2914 74.5588 58.4801 73.9057C58.8468 72.6402 58.3153 71.2543 56.7056 70.9557C56.5277 70.9234 56.3455 70.8976 56.1632 70.8976C55.3063 70.8912 54.4516 70.8933 53.5947 70.8933C53.5274 70.8933 53.4623 70.9105 53.3582 70.9256C53.3582 73.5898 53.356 76.2348 53.3604 78.9098C53.5426 78.8969 53.6598 78.8861 53.8203 78.8754V75.5107H56.2522C56.3368 75.6503 56.417 75.7814 56.4951 75.9125C57.018 76.7998 57.5408 77.6872 58.0658 78.5746C58.2075 78.8152 58.4433 78.9105 58.773 78.8603C58.094 77.7151 57.4258 76.585 56.7446 75.4333V75.429ZM53.8355 71.3402C53.9613 71.3295 54.0698 71.3145 54.1782 71.3123C54.7813 71.3102 55.3844 71.308 55.9875 71.3145C56.1827 71.3166 56.3802 71.336 56.5711 71.3725C58.0679 71.6518 58.3066 72.9538 57.9855 73.9035C57.7859 74.4901 57.3217 74.8145 56.7338 74.9735C56.5863 75.0144 56.4301 75.0487 56.2782 75.0509C55.4799 75.0595 54.6815 75.0552 53.8355 75.0552V71.3402ZM68.1447 78.8775C68.1339 78.7314 68.1252 78.6175 68.1144 78.4585H63.9036C63.9144 77.2811 63.8819 76.1488 63.9253 74.9821H67.9538C67.943 74.8296 67.9343 74.7157 67.9235 74.5674H63.9296V71.3059H68.1426C68.1339 71.149 68.1274 71.033 68.1209 70.9127H63.4459V78.8732H68.1447V78.8775ZM46.837 74.5782C46.401 74.5782 45.9671 74.5803 45.5311 74.5782C45.0885 74.576 44.646 74.5932 44.2142 74.5653V71.3037H48.4337V70.9234H43.7565V78.884H48.4272V78.4714H44.186C44.1969 77.2876 44.1644 76.1574 44.2077 74.9907H48.2211V74.5803H46.837V74.5782ZM36.0422 75.0616C36.4782 75.0616 36.9121 75.0638 37.3481 75.0616C37.7625 75.0573 38.179 75.0788 38.5912 75.0487V74.6534C37.3048 74.6061 36.0357 74.677 34.7753 74.6126V71.3209H38.9275V70.9191H34.3457C34.2524 71.4735 34.2698 78.7787 34.3848 78.9033C34.4802 78.8969 34.5995 78.8883 34.7557 78.8775V75.0638H36.0443L36.0422 75.0616Z" fill="white"/>
</svg>
