<svg width="66" height="65" viewBox="0 0 66 65" fill="none" xmlns="http://www.w3.org/2000/svg">
<path d="M64.9998 25.7641C64.7105 26.8021 64.3704 27.8051 63.6297 28.6413C62.49 29.9272 61.0769 30.6887 59.3714 30.695C51.6145 30.7252 43.8561 30.7395 36.0993 30.6934C32.9934 30.6759 30.4947 28.077 30.4851 24.9788C30.4661 18.6586 30.4708 12.3384 30.4851 6.01819C30.4915 3.23005 32.3051 0.939449 35.0884 0.135115C35.206 0.101734 35.3173 0.0460982 35.4301 0C43.6368 0 51.8434 0 60.0517 0C60.1645 0.0445086 60.2758 0.101734 60.3918 0.133526C61.7286 0.502311 62.8254 1.21922 63.7012 2.30491C64.3942 3.16488 64.7185 4.1695 65.0014 5.20273V25.7641H64.9998ZM53.4504 15.4858C53.4504 17.325 53.4393 19.1641 53.4536 21.0033C53.4632 22.2193 54.2945 23.1047 55.3722 23.0904C56.4324 23.0761 57.2494 22.213 57.2541 21.0303C57.2669 17.3313 57.27 13.6307 57.2414 9.93177C57.2382 9.51371 57.0841 9.04955 56.8631 8.6903C56.4276 7.98293 55.5995 7.74131 54.8095 7.97975C53.9829 8.23091 53.4632 8.9351 53.4552 9.90316C53.4393 11.763 53.4504 13.6244 53.4504 15.4842V15.4858ZM45.8351 17.3885C45.8351 18.5935 45.8239 19.7984 45.8383 21.0033C45.8526 22.2193 46.6791 23.1047 47.7568 23.0904C48.817 23.0761 49.6308 22.213 49.6388 21.0319C49.6547 18.6014 49.661 16.1693 49.6261 13.7404C49.6197 13.3224 49.4687 12.8582 49.2493 12.499C48.8138 11.7916 47.9857 11.5484 47.1957 11.7884C46.3898 12.0332 45.8605 12.7215 45.843 13.6466C45.8192 14.8929 45.8367 16.1407 45.8351 17.3885ZM42.0266 19.2961C42.0266 18.6825 42.0457 18.0705 42.0218 17.4585C41.9789 16.3331 41.1397 15.4842 40.1128 15.4922C39.0796 15.5001 38.2515 16.3474 38.2261 17.4807C38.2006 18.6841 38.2006 19.8906 38.2261 21.0939C38.2499 22.2304 39.0669 23.0761 40.1033 23.092C41.1587 23.1095 41.9916 22.2432 42.025 21.0716C42.0425 20.4803 42.0282 19.889 42.0266 19.2961ZM64.9998 59.9054C64.9537 59.7241 64.8981 59.5461 64.8647 59.3633C64.4769 57.1697 63.5438 55.2447 62.0799 53.6138C57.1492 58.0567 51.9452 58.6464 46.3087 54.8664C47.7425 58.1473 48.0667 61.4902 47.45 64.9809H48.1208C52.9402 64.9809 57.7596 64.9571 62.579 64.9984C63.7298 65.0079 64.5341 64.6423 64.9998 63.5853V59.9054ZM21.6061 57.4049C20.9194 59.2075 20.9322 61.0832 20.9608 62.9637C20.9798 64.202 21.7396 64.9762 22.9795 64.9793C25.0935 64.9857 27.2076 64.9809 29.32 64.9809C33.5259 64.9809 37.7333 64.9841 41.9392 64.9793C43.0614 64.9793 43.9181 64.2386 43.9181 63.1942C43.9181 61.9082 43.9483 60.608 43.7703 59.3411C43.4603 57.1426 42.4733 55.2256 40.9696 53.5724C36.5873 58.3015 28.8225 58.8594 23.9093 53.5804C22.8904 54.709 22.145 55.9902 21.6061 57.4065V57.4049ZM40.124 46.0219C40.1398 41.7983 36.6858 38.341 32.4418 38.3298C28.1819 38.3187 24.7724 41.695 24.7692 45.9297C24.7661 50.1484 28.147 53.5518 32.348 53.5597C36.6016 53.5661 40.1096 50.1675 40.124 46.0235V46.0219ZM53.4012 53.5581C57.6865 53.5677 61.185 50.1612 61.1914 45.9726C61.1977 41.7649 57.723 38.3314 53.46 38.3298C49.243 38.3282 45.843 41.7109 45.8367 45.9154C45.8303 50.1389 49.2064 53.5486 53.4012 53.5581ZM15.2846 11.6771C11.0581 11.6708 7.64541 15.0439 7.63587 19.2404C7.62634 23.5005 11.0056 26.9054 15.2465 26.9054C19.4634 26.9054 22.8602 23.5196 22.8634 19.3104C22.8666 15.0884 19.4873 11.6835 15.2846 11.6771ZM3.82899 45.8883C3.81786 50.1214 7.18445 53.5438 11.3712 53.5581C15.6375 53.5724 19.0518 50.1993 19.0565 45.9678C19.0613 41.7443 15.6836 38.3378 11.4825 38.3298C7.25439 38.3219 3.83852 41.695 3.82899 45.8883ZM22.296 28.7176C22.0941 28.619 21.7253 28.6699 21.5219 28.7939C17.3367 31.3579 13.1594 31.3674 8.99332 28.7732C8.68177 28.5793 8.44812 28.5109 8.14452 28.7366C6.89675 29.6681 5.53295 30.4772 4.41552 31.5454C2.03919 33.817 0.697645 36.6814 0.171516 39.9194C0.0634288 40.5823 0.314572 41.1609 0.866133 41.6266C2.97542 37.2473 6.37221 34.634 11.2743 34.5689C16.189 34.5037 19.6796 37.0089 21.9288 41.3962C23.3482 38.36 25.6165 36.3301 28.7351 35.1856C27.4523 32.5612 24.8948 29.9876 22.2944 28.7176H22.296ZM1.17291 56.2572C0.0602498 58.3174 -0.0510162 60.5682 0.0141539 62.8493C0.0538917 64.2513 0.759636 64.9809 2.17748 64.9809C7.06365 64.9809 11.9498 64.9809 16.8344 64.9809C17.0442 64.9809 17.2524 64.9809 17.4416 64.9809C16.8169 61.4854 17.1618 58.1361 18.6194 54.7662C14.1386 58.3078 7.50871 58.3937 2.888 53.5009C2.29988 54.4356 1.67838 55.3146 1.17132 56.2541L1.17291 56.2572Z" fill="white"/>
</svg>
