<svg width="256" height="202" viewBox="0 0 256 202" fill="none" xmlns="http://www.w3.org/2000/svg">
<path d="M256 84.1618C255.617 84.2167 255.234 84.3266 254.845 84.3266C235.89 84.3321 216.93 84.3321 197.976 84.3266C197.659 84.3266 197.337 84.2991 197.037 84.2881C196.815 83.475 196.721 3.51163 196.937 1.48439C197.265 1.46791 197.609 1.42945 197.959 1.42945C216.952 1.42945 235.946 1.42945 254.939 1.42945C255.295 1.42945 255.645 1.50637 256 1.55032V20.7624C255.5 20.7844 254.995 20.8174 254.495 20.8174C243.96 20.8174 233.425 20.8174 222.889 20.8174H221.568V34.151H222.889C232.741 34.151 242.594 34.151 252.446 34.151C252.896 34.151 253.345 34.1785 253.767 34.1949V51.671H221.64C221.384 53.3137 221.468 64.1311 221.734 64.9057C222.145 64.9057 222.573 64.9057 223 64.9057C233.497 64.9057 243.999 64.9057 254.495 64.9057C254.995 64.9057 255.5 64.9277 256 64.9387V84.1508V84.1618ZM256 93.7651C255.856 93.7431 255.717 93.7047 255.572 93.7047C252.229 93.7047 248.88 93.6992 245.537 93.7047C245.331 93.7047 245.126 93.7596 244.809 93.8035C244.809 94.2211 244.809 94.6002 244.809 94.9847C244.809 101.033 244.809 107.077 244.804 113.126C244.804 113.477 244.932 113.873 244.598 114.246C244.343 113.911 244.121 113.631 243.904 113.351C239.156 107.049 234.402 100.753 229.676 94.4353C229.298 93.9299 228.921 93.6772 228.265 93.6882C225.783 93.7211 223.3 93.6992 220.818 93.7047C220.54 93.7047 220.262 93.7376 219.851 93.7706C219.851 107.071 219.851 120.306 219.851 133.601H231.109C231.109 130.107 231.103 126.673 231.109 123.234C231.114 119.773 231.075 116.312 231.231 112.829C231.547 113.071 231.775 113.329 231.981 113.603C236.79 120.037 241.599 126.47 246.381 132.92C246.792 133.475 247.209 133.684 247.897 133.673C250.596 133.64 253.29 133.673 255.989 133.684V93.7651H256ZM0 164.422C0.12218 164.675 0.30545 164.916 0.355432 165.18C1.10517 168.806 3.50434 170.954 6.89761 172.036C10.4464 173.174 14.0673 173.113 17.605 171.899C22.0201 170.383 24.1749 167.015 23.764 162.422C23.5918 160.483 22.781 158.824 21.1704 157.703C20.1263 156.978 18.9656 156.324 17.7605 155.923C15.6557 155.225 13.462 154.786 11.3294 154.159C10.1298 153.808 8.92468 153.401 7.81951 152.835C5.19264 151.484 5.67581 148.38 7.14752 147.05C7.8806 146.385 8.7192 145.918 9.67442 145.671C11.3016 145.254 12.9622 145.221 14.5838 145.671C16.722 146.265 18.1826 147.55 18.5935 149.808C18.6102 149.907 18.6602 150.006 18.7379 150.215C20.2319 150.248 21.748 150.253 23.3363 150.215C23.303 148.413 22.831 146.918 21.8757 145.572C20.6262 143.825 18.9268 142.666 16.883 142.023C13.7064 141.023 10.5019 141.062 7.33634 142.067C5.5925 142.622 4.12635 143.622 2.88789 144.974C0.288789 147.803 -0.172162 154.176 4.95384 156.796C6.09233 157.379 7.31413 157.846 8.54703 158.208C10.2631 158.714 12.0292 159.065 13.773 159.505C14.9948 159.813 16.1888 160.214 17.2329 160.939C19.2989 162.378 19.5599 165.142 17.705 166.845C17.0385 167.454 16.1833 167.943 15.3336 168.251C13.3898 168.949 11.3738 168.916 9.39118 168.35C7.13641 167.707 5.49809 166.4 4.9705 164.01C4.95939 163.949 4.8983 163.9 4.815 163.785H0C0 163.999 0 164.213 0 164.427V164.422ZM256 162.076C255.872 161.604 255.761 161.131 255.606 160.67C255.089 159.153 254.067 158.043 252.729 157.192C251.263 156.258 249.636 155.698 247.964 155.264C246.265 154.819 244.537 154.467 242.855 153.967C241.799 153.648 240.755 153.22 239.8 152.676C238.523 151.951 238.056 150.759 238.251 149.308C238.462 147.731 239.45 146.759 240.805 146.105C242.555 145.259 244.426 145.204 246.287 145.561C248.769 146.039 250.435 147.424 250.891 150.006C250.902 150.061 250.98 150.105 251.035 150.165H255.656C255.506 149.341 255.445 148.594 255.228 147.896C254.295 144.847 252.085 143.029 249.147 142.04C246.281 141.073 243.349 141.095 240.428 141.82C238.284 142.353 236.473 143.452 235.007 145.122C232.575 147.891 232.075 154.17 237.162 156.785C238.334 157.384 239.589 157.857 240.855 158.23C242.571 158.741 244.354 159.032 246.07 159.549C247.225 159.895 248.408 160.323 249.419 160.955C251.585 162.318 251.796 165.207 249.891 166.905C249.219 167.504 248.342 167.921 247.503 168.29C246.326 168.8 245.048 168.768 243.782 168.718C240.328 168.597 238.212 167.048 237.123 163.84H232.503C232.503 164.147 232.469 164.4 232.508 164.636C232.597 165.125 232.686 165.614 232.836 166.092C233.83 169.256 236.157 171.08 239.206 172.086C241.744 172.926 244.36 172.943 246.992 172.602C249.169 172.322 251.179 171.619 252.918 170.256C254.223 169.235 255.156 167.954 255.65 166.383C255.783 165.955 255.883 165.515 256 165.076C256 164.081 256 163.081 256 162.087V162.076ZM39.7195 201.995C39.8417 201.929 39.9584 201.835 40.0861 201.808C43.3294 201.088 45.3676 199.044 46.4061 196.012C47.3669 193.21 47.3669 190.342 46.5838 187.507C45.623 184.024 42.9018 181.305 38.731 180.975C34.3714 180.634 30.7671 182.821 29.362 186.914C28.4235 189.639 28.3846 192.435 29.1121 195.21C30.0229 198.676 32.1222 201.044 35.7876 201.835C35.882 201.857 35.9653 201.945 36.0541 202H39.7251L39.7195 201.995ZM44.9677 196.33C43.5793 199.357 41.2079 200.923 37.8424 200.912C34.5213 200.901 32.1055 199.385 30.8226 196.363C29.4564 193.149 29.4509 189.826 30.8226 186.612C32.1055 183.596 34.5047 182.096 37.848 182.085C41.1913 182.074 43.5238 183.596 44.9233 186.562C45.1788 187.106 45.3954 187.683 45.512 188.271C45.7008 189.21 45.8008 190.166 45.8952 190.847C45.8674 192.902 45.7286 194.671 44.9677 196.325V196.33ZM256 181.294C252.196 181.283 248.392 181.272 244.587 181.272C244.387 181.272 244.193 181.349 244.01 181.387V201.753C244.46 201.753 244.848 201.753 245.232 201.753C248.819 201.764 252.407 201.775 256 201.78V200.714C255.606 200.692 255.211 200.659 254.817 200.659C252.018 200.659 249.213 200.659 246.414 200.659H245.259V191.82C248.703 191.765 252.063 191.715 255.422 191.661C255.45 191.661 255.472 191.617 255.545 191.556C255.528 191.32 255.511 191.051 255.489 190.666H245.176C245.187 187.831 245.154 185.117 245.198 182.359H255.994V181.294H256ZM11.2239 201.995C11.6237 201.857 12.0181 201.714 12.4179 201.577C14.9726 200.703 16.6998 199.05 17.394 196.418C17.4606 196.16 17.4439 195.885 17.4717 195.561H16.4443C16.3665 195.764 16.2832 195.918 16.2388 196.089C15.6779 198.423 14.1229 199.835 11.8848 200.533C8.4193 201.615 3.95418 200.681 2.16591 195.644C1.51059 193.803 1.38285 191.891 1.56612 189.963C1.72718 188.249 2.20479 186.628 3.18223 185.167C5.71468 181.376 11.3683 181.211 14.1895 183.848C15.2114 184.799 15.9556 185.892 16.2444 187.271C16.2832 187.469 16.3999 187.65 16.4943 187.881C16.8442 187.848 17.1496 187.82 17.5106 187.793C17.3606 186.117 16.672 184.799 15.6279 183.617C11.8959 179.409 3.20444 179.827 0.905241 187.084C0.0222145 189.864 0.00555362 192.688 0.838598 195.484C1.81604 198.748 3.8209 201.028 7.29747 201.824C7.39188 201.846 7.46408 201.94 7.54738 202H11.2183L11.2239 201.995ZM225.561 201.995C225.827 201.907 226.094 201.813 226.366 201.742C229.465 200.923 231.553 198.649 231.936 195.6H230.809C230.503 197.237 229.77 198.544 228.448 199.484C226.31 201 223.95 201.297 221.473 200.572C218.824 199.797 217.308 197.869 216.525 195.358C215.764 192.93 215.747 190.441 216.369 187.985C217.202 184.683 219.751 181.794 224.45 182.101C227.304 182.288 229.809 184.227 230.62 186.963C230.698 187.232 230.775 187.502 230.864 187.815C231.092 187.831 231.297 187.864 231.503 187.864C231.636 187.864 231.77 187.809 231.897 187.782C231.825 186.156 231.109 184.711 229.876 183.414C226.16 179.497 217.78 179.909 215.436 186.859C214.442 189.804 214.437 192.814 215.381 195.77C216.392 198.94 218.435 201.11 221.834 201.835C221.929 201.857 222.012 201.94 222.101 201.995H225.555H225.561ZM46.2339 84.3321C55.192 84.3321 64.0722 84.3321 72.9525 84.3321C73.1302 84.3321 73.3079 84.3046 73.4856 84.2826C73.5134 84.2826 73.5356 84.2387 73.5578 84.2112C73.58 84.1838 73.5967 84.1508 73.6633 84.0299C68.4374 73.7069 63.1836 63.3345 57.9188 52.9346C58.6296 52.5335 59.235 52.2149 59.807 51.8633C60.3846 51.5062 60.9622 51.1381 61.5064 50.7315C66.3103 47.144 69.0871 42.271 70.5533 36.6013C71.6585 32.3325 71.6474 28.0088 70.9365 23.6852C70.1867 19.1088 68.454 14.9444 65.3773 11.3844C62.0063 7.47821 57.7077 5.01146 52.8094 3.47867C47.9944 1.97335 43.0351 1.45692 38.0201 1.44044C25.791 1.40748 13.562 1.42945 1.33287 1.43495C1.02187 1.43495 0.710864 1.48439 0.422076 1.50637C0.199931 2.72601 0.24436 83.4311 0.460951 84.2662H25.0191V56.5935H33.0052C37.4315 65.8836 41.8244 75.1024 46.2284 84.3376L46.2339 84.3321ZM25.0524 19.5483C25.3301 19.5208 25.5689 19.4823 25.8077 19.4823C29.0788 19.4823 32.3499 19.4439 35.621 19.4933C38.7366 19.5428 41.4689 20.5701 43.596 22.8995C45.9063 25.4322 46.5561 28.4758 46.0729 31.7392C45.3232 36.8155 41.8966 39.969 36.4818 40.3096C32.7275 40.5459 28.9455 40.3536 25.0524 40.3536V19.5428V19.5483ZM115.082 60.4612C115.132 61.2798 115.177 62.0929 115.254 62.906C115.682 67.1362 117.065 71.0094 119.714 74.3937C122.513 77.9757 126.167 80.4424 130.327 82.2115C134.825 84.1288 139.563 85.0683 144.428 85.4968C150.442 86.0242 156.429 85.9088 162.366 84.7826C167.647 83.7772 172.59 81.9258 176.994 78.7998C181.504 75.5913 184.825 71.5039 186.491 66.2023C187.863 61.8347 188.007 57.3846 187.257 52.9071C186.53 48.545 184.675 44.7157 181.381 41.6447C179.071 39.491 176.367 37.9692 173.456 36.7771C169.302 35.0795 164.921 34.3048 160.528 33.5686C156.879 32.9588 153.236 32.3325 149.604 31.6293C147.554 31.2337 145.555 30.6184 143.767 29.5087C140.185 27.2891 140.007 22.7127 143.395 20.213C144.417 19.4604 145.566 18.9604 146.793 18.6418C149.265 17.999 151.781 17.955 154.291 18.2847C156.607 18.5868 158.762 19.3505 160.611 20.8119C162.044 21.9436 162.971 23.3775 163.249 25.1905C163.304 25.5366 163.382 25.8772 163.454 26.2288H185.93C185.83 24.9927 185.78 23.828 185.636 22.6743C185.058 17.999 183.292 13.8291 180.121 10.2801C176.383 6.09925 171.663 3.47867 166.292 1.99532C157.945 -0.312106 149.481 -0.575813 140.973 0.984449C135.786 1.93489 130.999 3.91818 126.739 7.05519C122.502 10.1757 119.353 14.0983 117.726 19.1197C116.437 23.0808 116.215 27.1408 116.748 31.2447C117.381 36.0958 119.397 40.2932 122.891 43.7708C126.162 47.0287 130.155 49.0614 134.537 50.4239C138.291 51.5886 142.19 52.0501 146.033 52.7807C149.348 53.407 152.68 53.9784 155.968 54.7256C157.562 55.0882 159.111 55.72 160.611 56.3847C161.938 56.9726 162.843 58.0439 163.193 59.4888C163.699 61.5929 163.055 63.351 161.466 64.7849C160.355 65.7848 159.045 66.4495 157.618 66.867C154.424 67.8065 151.181 67.9384 147.91 67.378C145.794 67.0154 143.822 66.2792 142.034 65.0925C140.274 63.9278 138.957 62.428 138.507 60.3074C138.48 60.1755 138.385 60.0601 138.313 59.9118H115.149C115.116 60.1645 115.077 60.3074 115.082 60.4447V60.4612ZM105.902 1.59427C104.819 1.34155 82.1215 1.38001 81.3329 1.62174C81.0996 3.43472 81.1996 83.53 81.4439 84.2826H105.897V1.59427H105.902ZM45.1788 133.579H55.3863C55.4308 133.469 55.4474 133.436 55.4585 133.403C55.4696 133.37 55.4863 133.337 55.4863 133.299C55.4918 125.937 55.503 118.575 55.5085 111.208C55.5085 111.104 55.5252 110.994 55.5418 110.89C55.5418 110.868 55.5863 110.846 55.614 110.835C55.6418 110.824 55.6807 110.829 55.7973 110.813C58.7796 118.24 61.773 125.685 64.7609 133.129H71.1586C72.1749 130.607 73.1913 128.107 74.1965 125.602C75.1906 123.124 76.1736 120.647 77.1732 118.174C78.1673 115.713 79.1059 113.224 80.1666 110.791C80.2555 110.813 80.3443 110.829 80.4276 110.851V133.574H90.7074C90.9295 132.228 90.8685 94.5177 90.6463 93.7486H77.0399C76.4235 95.3308 75.8181 96.8856 75.2128 98.4404C74.6185 99.9677 74.0299 101.489 73.4412 103.017C72.8414 104.577 72.2416 106.137 71.6418 107.698C71.0531 109.225 70.4811 110.758 69.8702 112.274C69.2537 113.796 68.7595 115.367 67.932 117.054C64.8497 109.115 61.8674 101.435 58.8796 93.7431H45.1677V133.563L45.1788 133.579ZM190.484 93.364C183.386 94.6001 178.399 98.4843 175.961 105.231C174.084 110.428 174.056 115.796 175.617 121.07C177.527 127.536 181.848 131.739 188.457 133.53C192.267 134.557 196.143 134.634 199.997 133.865C207.023 132.458 211.86 128.426 214.092 121.658C215.847 116.345 215.808 110.922 214.07 105.61C212.276 100.1 208.539 96.3087 203.035 94.276C200.408 93.3091 197.659 93.0289 194.294 92.9685C193.411 93.0564 191.933 93.1168 190.484 93.3695V93.364ZM202.246 119.284C201.797 120.35 201.241 121.427 200.514 122.322C197.72 125.756 192.522 125.822 189.54 122.542C188.49 121.383 187.785 120.026 187.374 118.537C186.491 115.318 186.491 112.076 187.363 108.851C187.718 107.538 188.34 106.341 189.157 105.242C191.956 101.473 197.92 101.429 200.769 105.286C201.919 106.841 202.607 108.577 202.891 110.466C203.052 111.554 203.107 112.653 203.213 113.746C203.168 115.653 202.985 117.532 202.246 119.29V119.284ZM0.299896 133.585H12.4179C13.1288 130.931 13.823 128.338 14.5116 125.772H26.7629C27.4682 128.404 28.1624 131.003 28.8566 133.579H41.5411C37.1316 120.224 32.7608 106.978 28.3957 93.7486H13.4398C9.05797 107.011 4.67615 120.251 0.299896 133.585ZM24.5692 117.306H16.7109C17.9938 112.505 19.2544 107.796 20.5151 103.088C20.5929 103.088 20.6762 103.088 20.7539 103.083C22.0146 107.791 23.2808 112.499 24.5692 117.306ZM122.502 93.7596H107.535C106.069 98.2096 104.614 102.627 103.153 107.049C101.692 111.472 100.226 115.889 98.7768 120.317C97.3273 124.723 95.8223 129.107 94.4228 133.612H106.513C107.213 130.992 107.907 128.399 108.607 125.794H120.869C121.58 128.442 122.274 131.036 122.968 133.623H135.653C131.254 120.29 126.884 107.044 122.502 93.7651V93.7596ZM110.828 117.334C112.05 112.51 113.372 107.807 114.621 103.088C114.694 103.083 114.771 103.072 114.843 103.066C116.11 107.769 117.37 112.472 118.681 117.334H110.834H110.828ZM171.085 124.251H152.469C152.919 123.663 153.225 123.251 153.547 122.844C159.028 115.801 164.51 108.752 169.997 101.715C170.341 101.27 170.524 100.836 170.513 100.264C170.48 98.3799 170.502 96.4955 170.496 94.6111C170.496 94.3364 170.452 94.0672 170.424 93.7871H138.88V103.083C141.856 103.083 144.761 103.072 147.665 103.083C150.592 103.094 153.519 103.028 156.696 103.132C156.212 103.758 155.874 104.203 155.535 104.637C150.103 111.587 144.678 118.537 139.229 125.476C138.813 126.009 138.602 126.542 138.619 127.223C138.657 129.003 138.63 130.777 138.635 132.557C138.635 132.898 138.68 133.244 138.702 133.596H171.085V124.245V124.251ZM209.355 159.856C211.043 159.23 212.393 158.324 213.415 156.978C214.97 154.939 215.431 152.616 215.225 150.127C214.925 146.523 213.07 144.029 209.711 142.639C208.3 142.056 206.806 141.826 205.29 141.82C201.513 141.804 197.737 141.815 193.96 141.82C193.683 141.82 193.411 141.864 193.094 141.891V172.218H197.942V160.653H204.39C204.585 160.999 204.762 161.307 204.929 161.614C206.695 164.911 208.461 168.207 210.227 171.503C210.438 171.899 210.566 172.339 211.204 172.322C212.782 172.278 214.364 172.306 216.219 172.306C213.865 168.042 211.621 163.977 209.35 159.856H209.355ZM200.364 145.853C201.73 145.853 203.091 145.831 204.457 145.864C205.095 145.88 205.751 145.94 206.373 146.083C208.678 146.611 210.149 148.369 210.249 150.715C210.277 151.385 210.283 152.077 210.155 152.731C209.727 154.961 208.217 156.417 205.656 156.615C203.129 156.813 200.58 156.659 197.97 156.659V145.853C198.803 145.853 199.581 145.853 200.364 145.853ZM159.583 168.092V158.763C160.805 158.763 161.955 158.763 163.099 158.763H166.553C167.703 158.763 168.858 158.78 170.008 158.763C171.141 158.741 172.279 158.868 173.406 158.675V154.802H168.703C167.192 154.802 165.681 154.802 164.171 154.802C162.638 154.802 161.105 154.786 159.589 154.78V145.962C161.283 145.962 162.893 145.962 164.504 145.962C166.115 145.962 167.742 145.973 169.358 145.962C170.957 145.951 172.562 146.012 174.234 145.918C174.234 145.149 174.234 144.512 174.234 143.88C174.228 143.221 174.206 142.562 174.195 141.897H154.763V172.267H174.167V168.108H159.589L159.583 168.092ZM46.8893 168.092V158.758H48.0944C51.9098 158.758 55.7195 158.758 59.5349 158.758C59.9459 158.758 60.3568 158.703 60.8122 158.67C60.8233 157.318 60.8622 156.088 60.79 154.791H53.7647C52.6151 154.791 51.4599 154.797 50.3103 154.791C49.1774 154.786 48.0389 154.83 46.8893 154.758V145.951C47.3502 145.951 47.7723 145.951 48.1944 145.951C52.2208 145.951 56.2527 145.951 60.2791 145.951C60.69 145.951 61.1066 145.918 61.562 145.902C61.5509 144.463 61.6453 143.172 61.5064 141.891H42.1076V172.251H61.5064V168.13C56.5804 168.092 51.7487 168.147 46.8893 168.097V168.092ZM85.2593 167.828C85.2482 159.335 85.2371 150.835 85.2315 142.342C85.2315 142.271 85.2204 142.199 85.2093 142.128C85.2093 142.095 85.2038 142.056 85.1871 142.023C85.1704 141.99 85.1482 141.968 85.1205 141.941C85.0982 141.913 85.0705 141.891 85.0705 141.891H80.4443V172.229H99.421C99.6154 170.85 99.5654 168.91 99.3044 168.097H85.337C85.276 167.894 85.2593 167.861 85.2593 167.828ZM136.597 172.141V168.114H122.358V141.875H117.587V172.223C119.459 172.426 135.836 172.344 136.597 172.135V172.141ZM73.3856 199.352C73.1413 199.017 72.8969 198.682 72.6526 198.347C68.7706 192.919 64.8886 187.491 61.0066 182.063C60.5697 181.455 59.9829 181.246 59.2461 181.436V201.753C59.6571 201.731 59.9847 201.714 60.2569 201.703C60.3346 201.566 60.3568 201.539 60.3624 201.506C60.379 201.434 60.3957 201.363 60.3957 201.297C60.3957 195.644 60.4013 189.985 60.4013 184.332C60.4013 184.189 60.4013 184.046 60.4068 183.903C60.4068 183.832 60.4235 183.76 60.4457 183.694C60.4512 183.667 60.4846 183.645 60.5123 183.628C60.5401 183.612 60.579 183.612 60.6456 183.59C60.8678 183.892 61.101 184.211 61.3287 184.524C65.2607 190.007 69.1982 195.484 73.1191 200.973C73.5245 201.539 73.9077 201.995 74.7463 201.632V181.266C74.3242 181.294 73.9965 181.316 73.6133 181.343V199.253C73.5356 199.286 73.4578 199.319 73.3801 199.357L73.3856 199.352ZM188.418 183.535C188.646 183.832 188.884 184.123 189.101 184.425C193.055 189.935 197.004 195.446 200.958 200.956C201.597 201.846 201.602 201.846 202.591 201.582V181.266C202.185 181.288 201.847 181.31 201.391 181.332V199.259C200.986 198.995 200.747 198.698 200.525 198.391C196.621 192.935 192.711 187.48 188.829 182.008C188.374 181.365 187.907 181.09 187.107 181.381C187.085 181.678 187.052 181.958 187.052 182.233C187.052 188.386 187.052 194.539 187.052 200.698C187.052 200.945 187.063 201.198 187.096 201.44C187.107 201.533 187.191 201.621 187.274 201.764C187.568 201.731 187.868 201.692 188.251 201.648V183.596L188.423 183.53L188.418 183.535ZM145.266 192.869C145.722 192.699 146.088 192.573 146.449 192.43C148.087 191.787 149.226 190.644 149.709 188.974C150.648 185.738 149.287 182.195 145.166 181.431C144.711 181.349 144.244 181.283 143.778 181.283C141.584 181.266 139.396 181.272 137.202 181.272C137.03 181.272 136.864 181.316 136.597 181.354C136.597 188.166 136.591 194.929 136.603 201.769C137.069 201.736 137.369 201.709 137.78 201.681V193.078H144.006C144.222 193.435 144.428 193.77 144.628 194.105C145.966 196.374 147.304 198.643 148.648 200.912C149.011 201.528 149.615 201.771 150.459 201.643C148.721 198.715 147.01 195.825 145.266 192.88V192.869ZM137.819 182.414C138.141 182.387 138.419 182.348 138.696 182.343C140.24 182.337 141.784 182.332 143.328 182.348C143.828 182.354 144.333 182.403 144.822 182.497C148.654 183.211 149.265 186.54 148.443 188.969C147.932 190.468 146.743 191.298 145.238 191.704C144.861 191.809 144.461 191.897 144.072 191.902C142.028 191.924 139.985 191.913 137.819 191.913V182.414ZM174.451 201.687C174.423 201.313 174.401 201.022 174.373 200.616H163.593C163.621 197.605 163.538 194.71 163.649 191.726H173.962C173.934 191.336 173.912 191.045 173.884 190.666H163.66V182.326H174.445C174.423 181.925 174.406 181.629 174.389 181.321H162.421V201.676H174.451V201.687ZM119.903 190.694C118.787 190.694 117.676 190.699 116.56 190.694C115.427 190.688 114.294 190.732 113.188 190.661V182.321H123.99V181.348H112.017V201.703H123.974V200.649H113.116C113.144 197.621 113.061 194.732 113.172 191.748H123.446V190.699H119.903V190.694ZM92.268 191.93C93.3842 191.93 94.495 191.935 95.6113 191.93C96.672 191.919 97.7383 191.974 98.7935 191.897V190.886C95.5002 190.765 92.2513 190.946 89.0247 190.781V182.365H99.6543V181.338H87.925C87.6862 182.755 87.7307 201.434 88.025 201.753C88.2694 201.736 88.5748 201.714 88.9747 201.687V191.935H92.2735L92.268 191.93Z" fill="white" fill-opacity="0.05"/>
</svg>
