<svg width="205" height="73" viewBox="0 0 205 73" fill="none" xmlns="http://www.w3.org/2000/svg">
<path d="M17.8046 15.1384V34.781H28.105C34.5726 34.781 38.4053 30.9962 38.4053 25.0076C38.4053 19.1148 34.3331 15.1384 28.057 15.1384H17.8046ZM17.8046 46.8061V71H0.222056V1.86765H29.8297C47.0768 1.86765 56.3711 10.3954 56.3711 24.6722C56.3711 33.1521 52.1073 40.9133 44.5377 44.219L58.3833 71H38.6449L26.7635 46.8061H17.8046ZM82.7689 71H65.1863V1.86765H82.7689V71ZM91.0571 50.9741H107.777C108.4 55.7171 113.718 58.8791 120.234 58.8791C127.084 58.8791 131.54 55.8129 131.54 51.6449C131.54 47.8122 128.618 45.9437 120.761 44.3148L111.706 42.5422C98.962 40.0988 92.3985 33.2 92.3985 22.708C92.3985 9.29351 103.897 0.669928 119.898 0.669928C137.193 0.669928 147.398 9.05396 147.589 22.0372H131.396C131.061 17.0068 126.414 13.9886 120.09 13.9886C113.957 13.9886 109.885 16.7673 109.885 20.9832C109.885 24.7201 112.951 26.7802 120.186 28.2654L129.145 29.9422C142.799 32.5772 148.931 38.7574 148.931 49.6806C148.931 63.4304 137.576 72.1977 119.754 72.1977C102.124 72.1977 91.2487 64.3886 91.0571 50.9741ZM204.553 56.819V71H157.171V1.86765H204.553V16.0486H174.754V29.7985H202.78V42.7338H174.754V56.819H204.553Z" fill="white"/>
</svg>
